# xmcd
#
# Track frame offsets:
#	150
#	14983
#	30464
#	46400
#	60268
#	73434
#	87425
#	102542
#	116728
#	130679
#	145111
#	159385
#	174096
#	190243
#
# Disc length: 2731
#
# Revision: 2
# Processed by: cddbd v1.5.1PL0 Copyright (c) Steve Scherf et al.
# Submitted via: audiograbber 1.83.01
# Normalized: r1:DSETVAR1
#
DISCID=c20aa90e
DTITLE=Various Artist - Goldene Volksmsuik 2004_2
DYEAR=2004
DGENRE=Volksmusik
TTITLE0=Kastelruther Spatzen - Herzenssache
TTITLE1=Nockalm Quintett - Bleib eine Rose
TTITLE2=Monika Martin - Frag Dein Herz
TTITLE3=Rudy Giovanni - Ein Herz voll Liebe
TTITLE4=Reiner Kirsten - Aus Liebe gemacht
TTITLE5=Vincent and Fernando - Sag du bleibst
TTITLE6=Stefanie Hertel - Mit den Augen des Herzens
TTITLE7=Ernst Hutter and Die Egerländer Musikanten - Mitten ins Herz
TTITLE8=Judith and Mel - Wer liebt der lebt
TTITLE9=Marc Pircher - Genau wie du
TTITLE10=Die Zillertaler - Da bin i dahoam
TTITLE11=Bergfeuer - Leben wie die Sterne steh'n
TTITLE12=Die fidelen Mölltaler - Das große Geheimnis
TTITLE13=Die jugnen Zillertaler - Morg'n
EXTD=
EXTT0=
EXTT1=
EXTT2=
EXTT3=
EXTT4=
EXTT5=
EXTT6=
EXTT7=
EXTT8=
EXTT9=
EXTT10=
EXTT11=
EXTT12=
EXTT13=
PLAYORDER=
